<svg width="32" height="32" viewBox="0 0 32 32" xmlns="http://www.w3.org/2000/svg">
  <defs>
    <linearGradient id="faviconGradient" x1="0%" y1="0%" x2="100%" y2="100%">
      <stop offset="0%" style="stop-color:#3B82F6;stop-opacity:1" />
      <stop offset="50%" style="stop-color:#8B5CF6;stop-opacity:1" />
      <stop offset="100%" style="stop-color:#EC4899;stop-opacity:1" />
    </linearGradient>
  </defs>
  
  <!-- Background -->
  <rect width="32" height="32" rx="6" fill="url(#faviconGradient)"/>
  
  <!-- Simplified Brain Icon -->
  <g transform="translate(16, 16) scale(0.8)">
    <path d="M -8 -4 C -10 -6, -10 -9, -7 -11 C -5 -13, -2 -13, -1 -11 C 0 -13, 2 -13, 4 -11 C 5 -13, 8 -13, 10 -11 C 11 -9, 11 -6, 10 -4 C 11 -2, 11 2, 10 4 C 11 6, 11 9, 10 11 C 8 13, 5 13, 4 11 C 2 13, 0 13, -1 11 C -2 13, -5 13, -7 11 C -8 13, -10 9, -10 7 C -11 5, -11 2, -10 0 C -11 -2, -11 -5, -10 -7 C -10 -9, -8 -9, -8 -4 Z" 
          fill="#ffffff" 
          opacity="0.9"/>
    
    <!-- Neural Nodes -->
    <g fill="#ffffff">
      <circle cx="-5" cy="-4" r="1"/>
      <circle cx="5" cy="4" r="1"/>
      <circle cx="-5" cy="0" r="1"/>
      <circle cx="5" cy="0" r="1"/>
      <circle cx="-5" cy="4" r="1"/>
      <circle cx="5" cy="-4" r="1"/>
      <circle cx="0" cy="-5" r="1"/>
      <circle cx="0" cy="5" r="1"/>
    </g>
  </g>
</svg>
