<svg width="16" height="16" viewBox="0 0 16 16" xmlns="http://www.w3.org/2000/svg">
  <defs>
    <linearGradient id="icon16Gradient" x1="0%" y1="0%" x2="100%" y2="100%">
      <stop offset="0%" style="stop-color:#3B82F6;stop-opacity:1" />
      <stop offset="50%" style="stop-color:#8B5CF6;stop-opacity:1" />
      <stop offset="100%" style="stop-color:#EC4899;stop-opacity:1" />
    </linearGradient>
  </defs>
  
  <!-- Background -->
  <rect width="16" height="16" rx="3" fill="url(#icon16Gradient)"/>
  
  <!-- Mini Brain Icon -->
  <g transform="translate(8, 8) scale(0.7)">
    <path d="M -4 -2 C -5 -3, -5 -4.5, -3.5 -5.5 C -2.5 -6.5, -1 -6.5, -0.5 -5.5 C 0 -6.5, 1 -6.5, 2 -5.5 C 2.5 -6.5, 4 -6.5, 5 -5.5 C 5.5 -4.5, 5.5 -3, 5 -2 C 5.5 -1, 5.5 1, 5 2 C 5.5 3, 5.5 4.5, 5 5.5 C 4 6.5, 2.5 6.5, 2 5.5 C 1 6.5, 0 6.5, -0.5 5.5 C -1 6.5, -2.5 6.5, -3.5 5.5 C -4 6.5, -5 4.5, -5 3.5 C -5.5 2.5, -5.5 1, -5 0 C -5.5 -1, -5.5 -2.5, -5 -3.5 C -5 -4.5, -4 -4.5, -4 -2 Z" 
          fill="#ffffff" 
          opacity="0.9"/>
    
    <!-- Simple Neural Dots -->
    <g fill="#ffffff">
      <circle cx="-2.5" cy="-2" r="0.5"/>
      <circle cx="2.5" cy="2" r="0.5"/>
      <circle cx="-2.5" cy="0" r="0.5"/>
      <circle cx="2.5" cy="0" r="0.5"/>
      <circle cx="-2.5" cy="2" r="0.5"/>
      <circle cx="2.5" cy="-2" r="0.5"/>
      <circle cx="0" cy="-2.5" r="0.5"/>
      <circle cx="0" cy="2.5" r="0.5"/>
    </g>
  </g>
</svg>
